<svg xmlns="http://www.w3.org/2000/svg" viewBox="0 0 24 24"><path fill="#303c42" d="M12 0C6.393 0 2 4.612 2 10.5 2 18.575 6.019 24 12 24s10-5.425 10-13.5C22 4.612 17.607 0 12 0z"/><path fill="#fafafa" d="M12 23c-5.383 0-9-5.023-9-12.5 0-3.364 1.578-6.264 4.011-7.947.027.25.232.447.489.447a.5.5 0 0 0 .5-.5.491.491 0 0 0-.236-.414C9.02 1.393 10.458 1 12 1s2.979.393 4.236 1.086A.491.491 0 0 0 16 2.5a.5.5 0 0 0 .5.5.494.494 0 0 0 .489-.447C19.422 4.236 21 7.136 21 10.5c0 7.477-3.617 12.5-9 12.5z"/><path fill="#303c42" d="M8 10c-1.183 0-2.5.616-2.5 1.5 0 1.141.434 2.5 2.5 2.5 1.207 0 3-1.639 3-2.5 0-1.428-2.499-1.5-3-1.5z"/><path fill="#5c6671" d="M8 13c-.779 0-1.5-.182-1.504-1.47.065-.162.699-.53 1.504-.53 1.03.001 2 .283 2.003.463C9.914 11.818 8.718 13 8 13z"/><path fill="#303c42" d="M16 10c-.501 0-3 .072-3 1.5 0 .861 1.793 2.5 3 2.5 2.066 0 2.5-1.359 2.5-2.5 0-.884-1.317-1.5-2.5-1.5z"/><path fill="#5c6671" d="M16 13c-.718 0-1.914-1.182-2-1.5 0-.217.97-.499 2-.5.805 0 1.439.368 1.5.5 0 1.318-.721 1.5-1.5 1.5z"/><path fill="#d32f2f" d="m8.362 8.981 3.5 1a.5.5 0 0 0 .276 0l3.5-1A.5.5 0 0 0 15.5 8h-7a.5.5 0 0 0-.138.981zm.492 6.165a.5.5 0 0 0-.707 0l-2.5 2.5a.5.5 0 0 0 .707.708l2.5-2.5a.502.502 0 0 0 0-.708zm7 0a.5.5 0 0 0-.707.707l2.5 2.5a.498.498 0 0 0 .708 0 .5.5 0 0 0 0-.707l-2.501-2.5z"/><circle cx="9.5" cy="17.5" r=".5" fill="#303c42"/><circle cx="12" cy="15" r=".5" fill="#303c42"/><circle cx="9.5" cy="19.5" r=".5" fill="#303c42"/><circle cx="9.5" cy="21.5" r=".5" fill="#303c42"/><circle cx="14.5" cy="17.5" r=".5" fill="#303c42"/><circle cx="14.5" cy="19.5" r=".5" fill="#303c42"/><circle cx="14.5" cy="21.5" r=".5" fill="#303c42"/><circle cx="4.5" cy="14.5" r=".5" fill="#303c42"/><circle cx="19.5" cy="14.5" r=".5" fill="#303c42"/><circle cx="4.5" cy="9.5" r=".5" fill="#303c42"/><circle cx="19.5" cy="9.5" r=".5" fill="#303c42"/><circle cx="7.5" cy="6.5" r=".5" fill="#303c42"/><circle cx="10.5" cy="6.5" r=".5" fill="#303c42"/><circle cx="13.5" cy="6.5" r=".5" fill="#303c42"/><circle cx="7.5" cy="4.5" r=".5" fill="#303c42"/><circle cx="16.5" cy="6.5" r=".5" fill="#303c42"/><circle cx="16.5" cy="4.5" r=".5" fill="#303c42"/><linearGradient id="a" x1="2.266" x2="21.347" y1="16.58" y2="7.682" gradientTransform="matrix(1 0 0 -1 0 24)" gradientUnits="userSpaceOnUse"><stop offset="0" stop-color="#fff" stop-opacity=".2"/><stop offset="1" stop-color="#fff" stop-opacity="0"/></linearGradient><path fill="url(#a)" d="M12 0C6.393 0 2 4.612 2 10.5 2 18.575 6.019 24 12 24s10-5.425 10-13.5C22 4.612 17.607 0 12 0z"/></svg>