<svg xmlns="http://www.w3.org/2000/svg" version="1.1" xmlns:xlink="http://www.w3.org/1999/xlink" xmlns:svgjs="http://svgjs.com/svgjs" width="1440" height="560" preserveAspectRatio="none" viewBox="0 0 1440 560"><g mask="url(&quot;#SvgjsMask1000&quot;)" fill="none"><rect width="1440" height="560" x="0" y="0" fill="#0e2a47"></rect><path d="M0,416.764C92.077,442.975,200.926,489.703,280.679,436.745C360.624,383.659,344.944,261.938,371.874,169.829C394.543,92.292,430.132,19.401,426.289,-61.291C422.188,-147.405,405.977,-237.707,349.37,-302.731C292.809,-367.702,202.331,-383.692,120.975,-412.002C35.273,-441.824,-49.867,-490.79,-138.765,-472.59C-230.046,-453.902,-315.058,-394.012,-361.484,-313.228C-405.446,-236.732,-381.199,-142.701,-379.041,-54.498C-377.241,19.059,-383.852,94.516,-349.909,159.798C-316.81,223.457,-251.694,259.187,-193.863,301.657C-132.037,347.061,-73.776,395.762,0,416.764" fill="#0b2239"></path><path d="M1440 1078.5720000000001C1549.857 1084.6399999999999 1658.748 1097.775 1762.993 1062.586 1888.1019999999999 1020.354 2026.924 972.55 2092.911 858.175 2159.998 741.894 2135.957 595.2860000000001 2108.399 463.899 2082.0879999999997 338.457 2042.8400000000001 203.038 1939.5729999999999 127.11700000000002 1840.558 54.32299999999998 1702.694 99.31299999999999 1581.878 76.80700000000002 1476.889 57.249000000000024 1383.379 0.41800000000000637 1276.632 3.6200000000000045 1146.568 7.520999999999958 1005.866 13.94500000000005 905.77 97.08699999999999 800.706 184.356 716.025 321.98900000000003 729.741 457.88 743.358 592.7909999999999 894.896 662.679 973.977 772.826 1034.313 856.864 1052.655 971.375 1139.154 1028.125 1225.929 1085.056 1336.374 1072.848 1440 1078.5720000000001" fill="#113255"></path></g><defs><mask id="SvgjsMask1000"><rect width="1440" height="560" fill="#ffffff"></rect></mask></defs></svg>